# xmcd
#
# Track frame offsets: 
#        150
#        22506
#        46736
#        59917
#        72342
#        87803
#        100514
#        115398
#        144381
#        165016
#
# Disc length: 2357 seconds
#
# Revision: 3
# Processed by: cddbd v1.5.2PL0 Copyright (c) Steve Scherf et al.
# Submitted via: ExactAudioCopyFreeDBPlugin 1.0
#
DISCID=7209330a
DTITLE=Various Artist - Blues for a Stormy Monday
DYEAR=2016
DGENRE=Blues
TTITLE0=B.B. King - Thrill Is Gone
TTITLE1=Roach Thompson Blues Band - Catwoman
TTITLE2=Memphis Slim - Lonely Nights
TTITLE3=Eddie "Cleanhead" Vinson - Cleanhead Blues
TTITLE4=B.B. King - Caldonia
TTITLE5=Memphis Slim - Rocking the House
TTITLE6=Joe Williams - It Don't Mean a Thing (if It Ain't Got That Swi
TTITLE6=ng)
TTITLE7=Roach Williams - Witch Bitch
TTITLE8=John Lee Hooker - Looking Back over My Day
TTITLE9=Johnny Otis - Linda Lu
EXTD=Song name first, artist second.
EXTT0=
EXTT1=
EXTT2=
EXTT3=
EXTT4=
EXTT5=
EXTT6=
EXTT7=
EXTT8=
EXTT9=
PLAYORDER=
